<svg width="205" height="64" viewBox="0 0 205 64" fill="none" xmlns="http://www.w3.org/2000/svg">
<path d="M31.7515 0C14.2158 0 0 14.2158 0 31.7515C0 49.2872 14.2158 63.503 31.7515 63.503C49.2872 63.503 63.503 49.2872 63.503 31.7515C63.503 14.2158 49.2872 0 31.7515 0ZM47.7955 47.7955C47.7955 52.607 43.8919 56.5106 39.0803 56.5106C35.9996 56.5106 33.3 54.9095 31.7474 52.4976C30.199 54.9095 27.4953 56.5106 24.4146 56.5106C19.603 56.5106 15.6994 52.607 15.6994 47.7955C10.8878 47.7955 6.98428 43.8919 6.98428 39.0803C6.98428 35.9996 8.58543 33.3 10.9973 31.7474C8.58543 30.199 6.98428 27.4953 6.98428 24.4146C6.98428 19.603 10.8878 15.6994 15.6994 15.6994C15.6994 10.8878 19.603 6.98428 24.4146 6.98428C27.4953 6.98428 30.1949 8.58543 31.7474 10.9973C33.2959 8.58543 35.9996 6.98428 39.0803 6.98428C43.8919 6.98428 47.7955 10.8878 47.7955 15.6994C52.607 15.6994 56.5106 19.603 56.5106 24.4146C56.5106 27.4953 54.9095 30.1949 52.4976 31.7474C54.9095 33.2959 56.5106 35.9996 56.5106 39.0803C56.5106 43.8919 52.607 47.7955 47.7955 47.7955ZM40.8436 31.7515C40.8436 36.7739 36.7739 40.8436 31.7515 40.8436C26.7291 40.8436 22.6594 36.7739 22.6594 31.7515C22.6594 26.7291 26.7291 22.6594 31.7515 22.6594C36.7739 22.6594 40.8436 26.7291 40.8436 31.7515Z" fill="url(#paint0_linear_462_1912)"/>
<path d="M108.08 47.3778C107.752 47.3778 107.484 47.1102 107.484 46.7819V25.9426H107.31L98.8338 47.0048C98.7446 47.2318 98.5257 47.3778 98.2825 47.3778H94.9059C94.6627 47.3778 94.4438 47.2318 94.3546 47.0048L85.8786 25.9426H85.7043V46.7819C85.7043 47.1102 85.4368 47.3778 85.1085 47.3778H80.382C80.0537 47.3778 79.7861 47.1102 79.7861 46.7819V16.214C79.7861 15.8857 80.0537 15.6182 80.382 15.6182H87.0825C87.3257 15.6182 87.5487 15.7681 87.6379 15.9951L96.5111 38.4194H96.6854L105.559 15.9951C105.648 15.7681 105.867 15.6182 106.114 15.6182H112.814C113.143 15.6182 113.41 15.8857 113.41 16.214V46.7819C113.41 47.1102 113.143 47.3778 112.814 47.3778H108.084H108.08Z" fill="white"/>
<path d="M116.033 23.7821H121.047C121.376 23.7821 121.643 24.0496 121.643 24.378V28.0302H121.777C122.612 25.0387 124.614 23.4092 127.391 23.4092C127.902 23.4092 128.36 23.4619 128.741 23.5348C129.021 23.5916 129.219 23.8348 129.219 24.1186V28.5126C129.219 28.8936 128.871 29.1733 128.498 29.0923C128.028 28.995 127.468 28.9342 126.889 28.9342C123.719 28.9342 121.87 30.8718 121.87 34.1957V46.782C121.87 47.1103 121.603 47.3779 121.274 47.3779H116.041C115.713 47.3779 115.445 47.1103 115.445 46.782V24.382C115.445 24.0537 115.713 23.7862 116.041 23.7862L116.033 23.7821Z" fill="white"/>
<path d="M127.346 44.0985C127.346 42.1163 128.907 40.5557 130.889 40.5557C132.871 40.5557 134.432 42.1163 134.432 44.0985C134.432 46.0807 132.847 47.6413 130.889 47.6413C128.931 47.6413 127.346 46.0563 127.346 44.0985Z" fill="white"/>
<path d="M140.646 46.7819V16.214C140.646 15.8857 140.914 15.6182 141.242 15.6182H154.469C160.432 15.6182 164.173 18.6786 164.173 23.5429C164.173 27.0208 161.575 29.9272 158.21 30.4299V30.6042C162.523 30.9365 165.693 34.0821 165.693 38.2856C165.693 43.8755 161.49 47.3737 154.712 47.3737H141.246C140.918 47.3737 140.65 47.1062 140.65 46.7778L140.646 46.7819ZM147.294 28.2288C147.294 28.5571 147.562 28.8246 147.89 28.8246H152.069C155.612 28.8246 157.639 27.264 157.639 24.5765C157.639 21.889 155.855 20.5716 152.754 20.5716H147.89C147.562 20.5716 147.294 20.8391 147.294 21.1675V28.2288ZM153.018 42.4243C156.848 42.4243 158.916 40.7948 158.916 37.7587C158.916 34.7226 156.779 33.2025 152.864 33.2025H147.89C147.562 33.2025 147.294 33.47 147.294 33.7984V41.8285C147.294 42.1568 147.562 42.4243 147.89 42.4243H153.018Z" fill="white"/>
<path d="M188.523 40.1583C188.908 40.1583 189.196 40.515 189.106 40.8879C188.089 45.1036 184.007 47.8844 178.486 47.8844C171.222 47.8844 166.865 43.239 166.865 35.6913C166.865 28.1436 171.267 23.2793 178.243 23.2793C185.219 23.2793 189.447 27.9247 189.447 35.0995V35.9994C189.447 36.5871 188.973 37.0614 188.385 37.0614H173.18V37.4586C173.18 40.8271 175.316 43.1377 178.595 43.1377C180.793 43.1377 182.511 42.1202 183.217 40.5191C183.31 40.3042 183.525 40.1664 183.76 40.1664H188.527L188.523 40.1583ZM173.249 33.1132H183.261C183.127 30.0974 181.17 28.0301 178.308 28.0301C175.446 28.0301 173.468 30.1663 173.245 33.1132H173.249Z" fill="white"/>
<path d="M197.55 15.6953H192.317C191.988 15.6953 191.721 15.9621 191.721 16.2912V27.6776C191.721 28.0067 191.988 28.2735 192.317 28.2735H197.55C197.879 28.2735 198.146 28.0067 198.146 27.6776V16.2912C198.146 15.9621 197.879 15.6953 197.55 15.6953Z" fill="white"/>
<path d="M200.918 42.5783C199.025 42.5783 198.146 41.719 198.146 39.9151V33.7092C198.146 33.3808 197.878 33.1133 197.55 33.1133H192.317C191.988 33.1133 191.721 33.3808 191.721 33.7092V41.0137C191.721 45.6144 193.877 47.4629 199.423 47.4629C200.432 47.4629 201.324 47.398 201.98 47.2926C202.268 47.248 202.479 46.9967 202.479 46.7049V43.1337C202.479 42.7851 202.183 42.5135 201.835 42.5418C201.547 42.5662 201.227 42.5783 200.914 42.5783H200.918Z" fill="white"/>
<path d="M204.348 28.2734H198.742C198.413 28.2734 198.146 28.5402 198.146 28.8693V32.5175C198.146 32.8466 198.413 33.1134 198.742 33.1134H204.348C204.677 33.1134 204.944 32.8466 204.944 32.5175V28.8693C204.944 28.5402 204.677 28.2734 204.348 28.2734Z" fill="white"/>
<defs>
<linearGradient id="paint0_linear_462_1912" x1="48.7035" y1="6.31949" x2="15.4076" y2="56.2674" gradientUnits="userSpaceOnUse">
<stop stop-color="#FF9C42"/>
<stop offset="1" stop-color="#98330D"/>
</linearGradient>
</defs>
</svg>
